<svg width="30" height="14" viewBox="0 0 30 14" fill="none" xmlns="http://www.w3.org/2000/svg">
<path id="Vector" d="M5.79885 2.49309C5.45896 2.90332 4.91515 3.22689 4.37134 3.18067C4.30336 2.62598 4.5696 2.03662 4.88116 1.67261C5.22105 1.25081 5.81584 0.950358 6.29734 0.927246C6.35399 1.50505 6.13307 2.07129 5.79885 2.49309ZM6.29168 3.29045C5.50428 3.24423 4.83018 3.74691 4.45631 3.74691C4.07678 3.74691 3.50464 3.31356 2.88152 3.32512C2.07147 3.33667 1.31806 3.80469 0.904537 4.55006C0.05483 6.04078 0.683613 8.24798 1.505 9.46136C1.90719 10.0623 2.38869 10.721 3.02314 10.6979C3.6236 10.6747 3.86152 10.2992 4.5866 10.2992C5.31735 10.2992 5.52694 10.6979 6.16139 10.6863C6.8185 10.6747 7.23202 10.0854 7.63421 9.48447C8.09306 8.80267 8.27999 8.1382 8.29132 8.10353C8.27999 8.09197 7.02243 7.60084 7.0111 6.12167C6.99977 4.88518 8.00242 4.29582 8.04774 4.26116C7.48127 3.40601 6.59757 3.31356 6.29168 3.29045ZM10.8404 1.61483V10.6227H12.2113V7.54306H14.109C15.8424 7.54306 17.0603 6.32968 17.0603 4.57317C17.0603 2.81665 15.865 1.61483 14.1543 1.61483H10.8404ZM12.2113 2.79354H13.7918C14.9813 2.79354 15.6611 3.44068 15.6611 4.57895C15.6611 5.71721 14.9813 6.37013 13.7861 6.37013H12.2113V2.79354ZM19.5641 10.6921C20.4251 10.6921 21.2239 10.2472 21.5864 9.54225H21.6147V10.6227H22.8836V6.13901C22.8836 4.83896 21.864 4.00115 20.2948 4.00115C18.839 4.00115 17.7627 4.85051 17.7231 6.01767H18.958C19.0599 5.46298 19.5641 5.09897 20.2552 5.09897C21.0936 5.09897 21.5637 5.49765 21.5637 6.23146V6.72836L19.853 6.83237C18.2612 6.93059 17.4002 7.59506 17.4002 8.75067C17.4002 9.91782 18.2895 10.6921 19.5641 10.6921ZM19.9323 9.62315C19.2016 9.62315 18.737 9.26491 18.737 8.716C18.737 8.14975 19.1846 7.82041 20.0399 7.7684L21.5637 7.67018V8.17864C21.5637 9.02223 20.8613 9.62315 19.9323 9.62315ZM24.5774 13.0726C25.9142 13.0726 26.543 12.5526 27.0925 10.9752L29.5 4.08782H28.1065L26.492 9.40936H26.4637L24.8493 4.08782H23.4161L25.7386 10.6459L25.614 11.0445C25.4044 11.7206 25.0645 11.9806 24.4584 11.9806C24.3508 11.9806 24.1412 11.969 24.0562 11.9575V13.0379C24.1355 13.0611 24.4754 13.0726 24.5774 13.0726Z" fill="white"/>
</svg>
