<svg width="35" height="35" viewBox="0 0 35 35" fill="none" xmlns="http://www.w3.org/2000/svg">
<g id="calendar_clock">
<mask id="mask0_511_6308" style="mask-type:alpha" maskUnits="userSpaceOnUse" x="0" y="0" width="35" height="35">
<rect id="Bounding box" x="0.5" y="0.5" width="34" height="34" fill="#D9D9D9"/>
</mask>
<g mask="url(#mask0_511_6308)">
<path id="calendar_clock_2" d="M7.67452 30.9584C7.06559 30.9584 6.54402 30.7413 6.10981 30.307C5.6756 29.8728 5.4585 29.3513 5.4585 28.7423V8.74573C5.4585 8.1368 5.6756 7.61535 6.10981 7.18138C6.54402 6.74717 7.06559 6.53006 7.67452 6.53006H10.0719V4.8336C10.0719 4.56633 10.1651 4.34025 10.3517 4.15538C10.5382 3.97074 10.7672 3.87842 11.0387 3.87842C11.31 3.87842 11.5361 3.97074 11.717 4.15538C11.8976 4.34025 11.9879 4.56633 11.9879 4.8336V6.53006H23.067V4.80881C23.067 4.54153 23.1572 4.31959 23.3375 4.14298C23.5182 3.9666 23.7419 3.87842 24.0087 3.87842C24.2757 3.87842 24.4973 3.96731 24.6735 4.1451C24.8496 4.3229 24.9377 4.54331 24.9377 4.80634V6.53006H27.3258C27.9347 6.53006 28.4563 6.74717 28.8905 7.18138C29.3247 7.61535 29.5418 8.1368 29.5418 8.74573V16.9762C29.5418 17.2284 29.4561 17.4397 29.2847 17.6102C29.1131 17.7806 28.9006 17.8659 28.6472 17.8659C28.3936 17.8659 28.1827 17.7806 28.0143 17.6102C27.846 17.4397 27.7618 17.2284 27.7618 16.9762V14.9302H7.23854V28.7423C7.23854 28.8514 7.28387 28.9514 7.37454 29.0423C7.46544 29.133 7.56543 29.1783 7.67452 29.1783H17.6156C17.8678 29.1783 18.0791 29.2641 18.2496 29.4358C18.4203 29.6072 18.5056 29.8197 18.5056 30.0733C18.5056 30.3266 18.4203 30.5375 18.2496 30.7058C18.0791 30.8742 17.8678 30.9584 17.6156 30.9584H7.67452ZM26.4641 32.375C24.7459 32.375 23.2858 31.774 22.0838 30.572C20.8817 29.3702 20.2807 27.91 20.2807 26.1916C20.2807 24.4732 20.8819 23.0131 22.0841 21.8113C23.2864 20.6093 24.7449 20.0082 26.4595 20.0082C28.181 20.0082 29.6428 20.6094 30.8448 21.8116C32.0466 23.0139 32.6475 24.4724 32.6475 26.187C32.6475 27.9085 32.0466 29.3702 30.8448 30.572C29.6428 31.774 28.1825 32.375 26.4641 32.375ZM26.9373 26.0372V22.7378C26.9373 22.5697 26.8761 22.4254 26.7538 22.305C26.6313 22.1844 26.4884 22.124 26.3253 22.124C26.1581 22.124 26.012 22.1853 25.8868 22.3078C25.7615 22.4301 25.6988 22.573 25.6988 22.7364V26.0673C25.6988 26.2017 25.7247 26.3367 25.7767 26.4725C25.8289 26.608 25.9086 26.7342 26.0157 26.8511L28.2286 29.093C28.3462 29.2164 28.4891 29.2806 28.6575 29.2853C28.8258 29.2898 28.9772 29.2257 29.1115 29.093C29.2381 28.9664 29.3014 28.8212 29.3014 28.6573C29.3014 28.4937 29.2381 28.3447 29.1115 28.2104L26.9373 26.0372Z" fill="#1C1B1F"/>
</g>
</g>
</svg>
