<svg width="30" height="31" viewBox="0 0 30 31" fill="none" xmlns="http://www.w3.org/2000/svg">
<g id="Group 107">
<circle id="Ellipse 27" cx="15" cy="15.5" r="15" fill="#222222"/>
<g id="fork_spoon">
<mask id="mask0_511_6216" style="mask-type:alpha" maskUnits="userSpaceOnUse" x="6" y="6" width="18" height="19">
<rect id="Bounding box" x="6" y="6.5" width="18" height="18" fill="#D9D9D9"/>
</mask>
<g mask="url(#mask0_511_6216)">
<path id="fork_spoon_2" d="M11.3651 22.625C11.2058 22.625 11.0722 22.5711 10.9644 22.4632C10.8568 22.3554 10.803 22.2219 10.803 22.0625V15.9914C10.128 15.8177 9.59625 15.4897 9.20775 15.0074C8.81925 14.5252 8.625 13.961 8.625 13.3149V8.9375C8.625 8.77812 8.67894 8.64456 8.78681 8.53681C8.89469 8.42894 9.02831 8.375 9.18769 8.375C9.34719 8.375 9.48075 8.42894 9.58838 8.53681C9.69613 8.64456 9.75 8.77812 9.75 8.9375V12.7524H10.803V8.9375C10.803 8.77812 10.8569 8.64456 10.9646 8.53681C11.0725 8.42894 11.2062 8.375 11.3657 8.375C11.5251 8.375 11.6586 8.42894 11.7664 8.53681C11.874 8.64456 11.9278 8.77812 11.9278 8.9375V12.7524H12.9808V8.9375C12.9808 8.77812 13.0347 8.64456 13.1426 8.53681C13.2505 8.42894 13.3841 8.375 13.5435 8.375C13.703 8.375 13.8366 8.42894 13.9442 8.53681C14.0519 8.64456 14.1058 8.77812 14.1058 8.9375V13.3149C14.1058 13.961 13.9116 14.5252 13.5231 15.0074C13.1346 15.4897 12.6028 15.8177 11.9278 15.9914V22.0625C11.9278 22.2219 11.8739 22.3554 11.766 22.4632C11.6582 22.5711 11.5246 22.625 11.3651 22.625ZM18.6272 22.625C18.4677 22.625 18.3341 22.5711 18.2265 22.4632C18.1188 22.3554 18.0649 22.2219 18.0649 22.0625V15.7265C17.3899 15.4966 16.8582 15.0536 16.4698 14.3973C16.0813 13.7411 15.8871 12.9736 15.8871 12.0948C15.8871 11.0639 16.1554 10.1863 16.692 9.46175C17.2286 8.73725 17.8738 8.375 18.6274 8.375C19.383 8.375 20.0298 8.73919 20.5678 9.46756C21.1059 10.1959 21.375 11.0755 21.375 12.1062C21.375 12.9899 21.1796 13.7579 20.7887 14.4102C20.3978 15.0627 19.8649 15.5005 19.1899 15.7235V22.0625C19.1899 22.2219 19.1359 22.3554 19.0281 22.4632C18.9202 22.5711 18.7866 22.625 18.6272 22.625Z" fill="#FDF9F1"/>
</g>
</g>
</g>
</svg>
