<svg width="35" height="34" viewBox="0 0 35 34" fill="none" xmlns="http://www.w3.org/2000/svg">
<g id="location_on">
<mask id="mask0_511_6353" style="mask-type:alpha" maskUnits="userSpaceOnUse" x="0" y="0" width="35" height="34">
<rect id="Bounding box" x="0.5" width="34" height="34" fill="#D9D9D9"/>
</mask>
<g mask="url(#mask0_511_6353)">
<path id="location_on_2" d="M17.4966 29.7855C17.2581 29.7855 17.0208 29.7465 16.7847 29.6686C16.5486 29.5909 16.3363 29.4649 16.1479 29.2904C15.1419 28.3684 14.0896 27.3307 12.9912 26.1772C11.8931 25.0236 10.8862 23.805 9.97055 22.5215C9.05491 21.238 8.29876 19.9158 7.70211 18.5549C7.10546 17.1939 6.80713 15.8483 6.80713 14.5181C6.80713 11.2489 7.86455 8.6022 9.9794 6.57802C12.0945 4.55384 14.6014 3.54175 17.5001 3.54175C20.3989 3.54175 22.9058 4.55384 25.0209 6.57802C27.1357 8.6022 28.1931 11.2489 28.1931 14.5181C28.1931 15.8483 27.8948 17.1931 27.2981 18.5524C26.7015 19.9119 25.9476 21.2327 25.0364 22.5148C24.1253 23.7967 23.1206 25.0137 22.0225 26.1659C20.9243 27.3179 19.8721 28.3549 18.8658 29.2769C18.6809 29.4512 18.4671 29.5795 18.2244 29.6619C17.9817 29.7443 17.7391 29.7855 17.4966 29.7855ZM17.5054 16.6367C18.1637 16.6367 18.7254 16.4024 19.1906 15.9337C19.6559 15.465 19.8886 14.9015 19.8886 14.2432C19.8886 13.585 19.6542 13.0233 19.1853 12.5581C18.7166 12.0927 18.1531 11.8601 17.4948 11.8601C16.8365 11.8601 16.2748 12.0944 15.8097 12.5631C15.3443 13.032 15.1116 13.5956 15.1116 14.2539C15.1116 14.9119 15.3461 15.4736 15.815 15.939C16.2837 16.4041 16.8472 16.6367 17.5054 16.6367Z" fill="#222222"/>
</g>
</g>
</svg>
