<svg width="30" height="31" viewBox="0 0 30 31" fill="none" xmlns="http://www.w3.org/2000/svg">
<g id="Group 106">
<circle id="Ellipse 26" cx="15" cy="15.5" r="15" fill="#222222"/>
<g id="directions_walk">
<mask id="mask0_511_6215" style="mask-type:alpha" maskUnits="userSpaceOnUse" x="6" y="6" width="18" height="19">
<rect id="Bounding box" x="6" y="6.5" width="18" height="18" fill="#D9D9D9"/>
</mask>
<g mask="url(#mask0_511_6215)">
<path id="directions_walk_2" d="M14.1027 17.3577L12.7686 23.121C12.7407 23.2528 12.6729 23.3593 12.5652 23.4405C12.4575 23.5218 12.334 23.5624 12.1945 23.5624C12.0071 23.5624 11.8564 23.4939 11.7424 23.3569C11.6284 23.2199 11.5917 23.0615 11.6322 22.8816L13.6455 12.8577L11.8628 13.5702V15.4928C11.8628 15.6523 11.809 15.7859 11.7014 15.8937C11.5936 16.0013 11.4599 16.0551 11.3003 16.0551C11.1407 16.0551 11.007 16.0013 10.8994 15.8937C10.7917 15.7859 10.7378 15.6523 10.7378 15.4928V13.2773C10.7378 13.1418 10.7749 13.0195 10.849 12.9104C10.923 12.8011 11.0215 12.7177 11.1447 12.66L14.2945 11.3215C14.4695 11.2465 14.6443 11.2015 14.8189 11.1867C14.9934 11.1718 15.1609 11.1884 15.3214 11.2365C15.482 11.2845 15.6309 11.3588 15.7679 11.4593C15.9049 11.5598 16.021 11.6904 16.1162 11.851L16.7507 12.8633C16.9374 13.1567 17.1484 13.4279 17.3839 13.6769C17.6195 13.9259 17.8772 14.1412 18.157 14.323C18.3609 14.4566 18.581 14.5701 18.8175 14.6635C19.0542 14.7567 19.2955 14.8269 19.5417 14.874C19.6935 14.9019 19.8183 14.9709 19.9159 15.0809C20.0135 15.191 20.0624 15.3259 20.0624 15.4855C20.0624 15.6451 20.0054 15.7756 19.8914 15.877C19.7775 15.9785 19.6407 16.0191 19.4811 15.9989C18.7619 15.8845 18.1145 15.6381 17.539 15.2597C16.9635 14.8814 16.4647 14.4042 16.0425 13.8282L15.4658 16.6971L16.8662 18.0947C16.9316 18.1649 16.9806 18.2408 17.0132 18.3225C17.046 18.4043 17.0624 18.4904 17.0624 18.5807V22.9999C17.0624 23.1595 17.0085 23.2932 16.9007 23.4008C16.7931 23.5085 16.6595 23.5624 16.4999 23.5624C16.3402 23.5624 16.2066 23.5085 16.099 23.4008C15.9912 23.2932 15.9374 23.1595 15.9374 22.9999V18.9254L14.1027 17.3577ZM16.1249 10.5096C15.7412 10.5096 15.4145 10.3747 15.1448 10.105C14.875 9.83523 14.7402 9.50855 14.7402 9.12492C14.7402 8.7413 14.875 8.41461 15.1448 8.14486C15.4145 7.87511 15.7412 7.74023 16.1249 7.74023C16.5085 7.74023 16.8352 7.87511 17.1049 8.14486C17.3747 8.41461 17.5095 8.7413 17.5095 9.12492C17.5095 9.50855 17.3747 9.83523 17.1049 10.105C16.8352 10.3747 16.5085 10.5096 16.1249 10.5096Z" fill="#FDF9F1"/>
</g>
</g>
</g>
</svg>
