<svg width="30" height="31" viewBox="0 0 30 31" fill="none" xmlns="http://www.w3.org/2000/svg">
<g id="Group 105">
<circle id="Ellipse 24" cx="15" cy="15.5" r="15" fill="#EF5A30"/>
<g id="shopping_cart">
<mask id="mask0_511_6214" style="mask-type:alpha" maskUnits="userSpaceOnUse" x="6" y="6" width="18" height="19">
<rect id="Bounding box" x="6" y="6.5" width="18" height="18" fill="#D9D9D9"/>
</mask>
<g mask="url(#mask0_511_6214)">
<path id="shopping_cart_2" d="M11.3653 22.6683C11.0009 22.6683 10.6911 22.5406 10.4359 22.2853C10.1806 22.03 10.053 21.7202 10.053 21.3558C10.053 20.9913 10.1806 20.6814 10.4359 20.4262C10.6911 20.1709 11.0009 20.0433 11.3653 20.0433C11.7298 20.0433 12.0397 20.1709 12.2949 20.4262C12.5502 20.6814 12.6778 20.9913 12.6778 21.3558C12.6778 21.7202 12.5502 22.03 12.2949 22.2853C12.0397 22.5406 11.7298 22.6683 11.3653 22.6683ZM18.6347 22.6683C18.2702 22.6683 17.9603 22.5406 17.7051 22.2853C17.4498 22.03 17.3222 21.7202 17.3222 21.3558C17.3222 20.9913 17.4498 20.6814 17.7051 20.4262C17.9603 20.1709 18.2702 20.0433 18.6347 20.0433C18.9991 20.0433 19.3089 20.1709 19.5641 20.4262C19.8194 20.6814 19.947 20.9913 19.947 21.3558C19.947 21.7202 19.8194 22.03 19.5641 22.2853C19.3089 22.5406 18.9991 22.6683 18.6347 22.6683ZM9.97219 9.6875H20.3856C20.6923 9.6875 20.9243 9.81806 21.0814 10.0792C21.2386 10.3402 21.2461 10.6067 21.1039 10.8789L18.7009 15.2317C18.5779 15.4481 18.4152 15.6166 18.2128 15.7372C18.0103 15.8579 17.7884 15.9183 17.5472 15.9183H12.075L11.2067 17.5048C11.1682 17.5625 11.167 17.625 11.2031 17.6923C11.2391 17.7596 11.2932 17.7933 11.3653 17.7933H19.3847C19.5442 17.7933 19.6778 17.8471 19.7856 17.9548C19.8932 18.0625 19.947 18.1962 19.947 18.3558C19.947 18.5154 19.8932 18.6491 19.7856 18.7567C19.6778 18.8644 19.5442 18.9183 19.3847 18.9183H11.3653C10.8653 18.9183 10.4896 18.7027 10.2383 18.2714C9.98675 17.8402 9.97788 17.4096 10.2116 16.9798L11.2817 15.0558L8.553 9.3125H7.6875C7.52788 9.3125 7.39425 9.25863 7.28663 9.15088C7.17888 9.04325 7.125 8.90962 7.125 8.75C7.125 8.59038 7.17888 8.45675 7.28663 8.34912C7.39425 8.24137 7.52788 8.1875 7.6875 8.1875H8.83406C8.96206 8.1875 9.08131 8.22137 9.19181 8.28912C9.30244 8.357 9.38656 8.45244 9.44419 8.57544L9.97219 9.6875Z" fill="#222222"/>
</g>
</g>
</g>
</svg>
