<svg width="30" height="31" viewBox="0 0 30 31" fill="none" xmlns="http://www.w3.org/2000/svg">
<g id="Group 104">
<circle id="Ellipse 25" cx="15" cy="15.5" r="15" fill="#222222"/>
<g id="local_fire_department">
<mask id="mask0_511_6213" style="mask-type:alpha" maskUnits="userSpaceOnUse" x="6" y="6" width="18" height="19">
<rect id="Bounding box" x="6" y="6.5" width="18" height="18" fill="#D9D9D9"/>
</mask>
<g mask="url(#mask0_511_6213)">
<path id="local_fire_department_2" d="M9.375 16.9999C9.375 15.7316 9.74087 14.4992 10.4726 13.3026C11.2044 12.1059 12.2077 11.0537 13.4827 10.146C13.724 9.96812 13.9771 9.95037 14.2421 10.0927C14.507 10.235 14.6394 10.4532 14.6394 10.7475V11.3835C14.6394 11.8421 14.8259 12.2429 15.1989 12.5857C15.5721 12.9285 16.012 13.0999 16.5188 13.0999C16.7409 13.0999 16.956 13.0566 17.1641 12.9701C17.3724 12.8836 17.5635 12.7601 17.7375 12.5994C17.8375 12.4984 17.956 12.4396 18.093 12.4228C18.23 12.4059 18.3576 12.4427 18.4759 12.5331C19.148 13.0619 19.6743 13.7194 20.0546 14.5054C20.4349 15.2915 20.625 16.123 20.625 16.9999C20.625 18.1239 20.3274 19.1342 19.7321 20.0308C19.137 20.9274 18.3659 21.595 17.4188 22.0335C17.6601 21.7671 17.8486 21.4642 17.9841 21.1249C18.1197 20.7855 18.1875 20.423 18.1875 20.0374C18.1875 19.6191 18.1082 19.2206 17.9496 18.8417C17.7908 18.4628 17.5629 18.1249 17.2658 17.8279L15 15.6111L12.753 17.8279C12.4481 18.1326 12.2152 18.4713 12.0542 18.8439C11.8931 19.2164 11.8125 19.6142 11.8125 20.0374C11.8125 20.423 11.8803 20.7855 12.0159 21.1249C12.1514 21.4642 12.3399 21.7671 12.5813 22.0335C11.6341 21.595 10.863 20.9274 10.2679 20.0308C9.67262 19.1342 9.375 18.1239 9.375 16.9999ZM15 17.1846L16.464 18.6182C16.6573 18.8114 16.8053 19.0273 16.9082 19.2658C17.0111 19.5042 17.0625 19.7614 17.0625 20.0374C17.0625 20.597 16.8618 21.0744 16.4603 21.4695C16.0589 21.8647 15.5721 22.0624 15 22.0624C14.4279 22.0624 13.9411 21.8647 13.5398 21.4695C13.1382 21.0744 12.9375 20.597 12.9375 20.0374C12.9375 19.7739 12.9878 19.521 13.0883 19.2787C13.1888 19.0364 13.338 18.8162 13.536 18.6182L15 17.1846Z" fill="white"/>
</g>
</g>
</g>
</svg>
